<svg width="26" height="26" viewBox="0 0 26 26" fill="none" xmlns="http://www.w3.org/2000/svg">
<path fill-rule="evenodd" clip-rule="evenodd" d="M12.9999 0.321045C5.82119 0.321045 0 6.14094 0 13.3209C0 19.0648 3.72487 23.9375 8.89012 25.6567C9.5396 25.7773 9.77812 25.3747 9.77812 25.0313C9.77812 24.7214 9.76606 23.6973 9.76047 22.611C6.14389 23.3974 5.38074 21.0772 5.38074 21.0772C4.78939 19.5746 3.93734 19.1751 3.93734 19.1751C2.75764 18.3682 4.02625 18.385 4.02625 18.385C5.33145 18.4765 6.01903 19.7247 6.01903 19.7247C7.17849 21.7116 9.06019 21.1373 9.80202 20.8053C9.91869 19.9651 10.2556 19.3914 10.6274 19.0668C7.73992 18.7385 4.70436 17.6236 4.70436 12.6424C4.70436 11.2231 5.2124 10.0634 6.044 9.15283C5.90881 8.82561 5.46384 7.50341 6.16972 5.71277C6.16972 5.71277 7.26115 5.36338 9.7454 7.04531C10.7826 6.75706 11.8949 6.61218 12.9999 6.60722C14.1042 6.61218 15.2172 6.75662 16.2563 7.04488C18.7376 5.36295 19.8277 5.71234 19.8277 5.71234C20.5353 7.50276 20.0903 8.82518 19.9554 9.15239C20.7889 10.063 21.2933 11.2227 21.2933 12.642C21.2933 17.635 18.2521 18.7342 15.3573 19.0562C15.8238 19.4597 16.2393 20.251 16.2393 21.4636C16.2393 23.203 16.2242 24.603 16.2242 25.0311C16.2242 25.3771 16.4585 25.7824 17.1172 25.6548C22.2794 23.9339 26 19.0627 26 13.3209C25.9998 6.14137 20.1792 0.321045 12.9999 0.321045Z" fill="#E2E4E9"/>
<path d="M4.92372 18.9858C4.89509 19.0504 4.79348 19.0698 4.70091 19.0257C4.60619 18.9835 4.55345 18.8954 4.58402 18.8306C4.612 18.7639 4.71383 18.7456 4.8079 18.7902C4.90262 18.8326 4.95666 18.9213 4.92372 18.9858ZM5.45028 19.5733C5.38849 19.6308 5.26729 19.6041 5.18506 19.513C5.09981 19.4226 5.08388 19.3014 5.14696 19.2431C5.21111 19.1858 5.32865 19.213 5.4139 19.3034C5.49871 19.3951 5.51529 19.515 5.45028 19.5733ZM5.96306 20.3218C5.8834 20.3774 5.75295 20.3255 5.67244 20.2099C5.59279 20.0941 5.59279 19.9552 5.67459 19.8999C5.75489 19.8443 5.88341 19.8945 5.96521 20.009C6.04443 20.1264 6.04443 20.2654 5.96306 20.3218ZM6.66506 21.0454C6.59402 21.1239 6.44204 21.1028 6.33096 20.9958C6.21751 20.891 6.18586 20.7418 6.25712 20.6635C6.32945 20.5847 6.48208 20.6066 6.59381 20.713C6.70725 20.8176 6.74105 20.9672 6.66506 21.0454ZM7.63379 21.4654C7.60214 21.5672 7.45619 21.6135 7.30873 21.57C7.1617 21.5254 7.06547 21.4064 7.09561 21.3035C7.12574 21.2008 7.27278 21.1528 7.4211 21.1991C7.56813 21.2434 7.66436 21.3618 7.63379 21.4654ZM8.69788 21.5431C8.70154 21.6503 8.57668 21.739 8.42233 21.7411C8.26669 21.7448 8.14076 21.6578 8.13925 21.5523C8.13925 21.444 8.26152 21.3564 8.41695 21.3534C8.5713 21.3506 8.69788 21.4369 8.69788 21.5431ZM9.68771 21.3747C9.70622 21.4791 9.5988 21.5866 9.44531 21.6152C9.29462 21.6432 9.15469 21.5782 9.13532 21.4746C9.1168 21.3674 9.22616 21.26 9.37685 21.2322C9.53056 21.2057 9.66833 21.2686 9.68771 21.3747Z" fill="#E2E4E9"/>
</svg>
